<svg width="669" height="59" viewBox="0 0 669 59" fill="none" xmlns="http://www.w3.org/2000/svg">

<path d="M11.32 41.424V32.784H37.624V41.424H11.32ZM15.864 5.328H31.672L43 50H32.248L26.424 24.656L23.736 12.752L20.984 24.656L15.032 50H4.6L15.864 5.328ZM74.513 50V24.912C74.513 23.9307 74.385 23.1627 74.129 22.608C73.873 22.0107 73.3823 21.712 72.657 21.712C71.7183 21.712 70.865 22.416 70.097 23.824C69.3717 25.1893 68.7743 27.6 68.305 31.056L67.665 26.256C67.409 22.3733 68.049 19.3013 69.585 17.04C71.121 14.7787 73.1903 13.648 75.793 13.648C78.0117 13.648 79.8463 14.5227 81.297 16.272C82.7477 17.9787 83.473 20.496 83.473 23.824V50H74.513ZM47.377 50V14.416H56.081L56.273 21.008V50H47.377ZM60.945 50V24.912C60.945 23.8027 60.7743 22.992 60.433 22.48C60.1343 21.968 59.665 21.712 59.025 21.712C57.9157 21.712 57.041 22.48 56.401 24.016C55.761 25.552 55.2063 27.8987 54.737 31.056L54.801 25.872C54.6303 23.3973 54.9077 21.2427 55.633 19.408C56.3583 17.5733 57.3183 16.1653 58.513 15.184C59.7503 14.16 61.073 13.648 62.481 13.648C64.7423 13.648 66.5343 14.5867 67.857 16.464C69.1797 18.2987 69.841 20.7093 69.841 23.696V50H60.945ZM113.962 50L113.642 43.6V26.064C113.642 24.4 113.023 23.0987 111.786 22.16C110.549 21.1787 108.842 20.688 106.666 20.688C104.575 20.688 102.869 21.136 101.546 22.032C100.266 22.8853 99.5193 24.1013 99.306 25.68H89.642C89.8553 23.1627 90.7087 21.008 92.202 19.216C93.6953 17.424 95.7007 16.0587 98.218 15.12C100.778 14.1387 103.743 13.648 107.114 13.648C110.442 13.648 113.343 14.16 115.818 15.184C118.293 16.1653 120.191 17.6373 121.514 19.6C122.879 21.52 123.562 23.888 123.562 26.704V50H113.962ZM102.57 50.768C100.223 50.768 98.154 50.32 96.362 49.424C94.57 48.4853 93.1833 47.2053 92.202 45.584C91.2207 43.9627 90.73 42.128 90.73 40.08C90.73 36.4107 92.138 33.5733 94.954 31.568C97.8127 29.52 101.738 28.496 106.73 28.496H114.602V35.408L106.474 35.472C104.639 35.472 103.167 35.8133 102.058 36.496C100.991 37.136 100.458 38.1173 100.458 39.44C100.458 40.3787 100.842 41.1893 101.61 41.872C102.421 42.5547 103.551 42.896 105.002 42.896C107.007 42.896 108.778 42.4053 110.314 41.424C111.893 40.4 113.194 39.0133 114.218 37.264L115.306 43.984C114.239 46.3307 112.597 48.0587 110.378 49.168C108.202 50.2347 105.599 50.768 102.57 50.768ZM155.651 50V28.048C155.651 26.2133 155.182 24.7413 154.243 23.632C153.304 22.5227 152.067 21.968 150.531 21.968C148.782 21.968 147.16 22.5653 145.667 23.76C144.216 24.912 142.68 26.9173 141.059 29.776L139.651 21.328C141.272 18.5547 143.235 16.592 145.539 15.44C147.843 14.2453 150.19 13.648 152.579 13.648C155.31 13.648 157.635 14.224 159.555 15.376C161.518 16.528 163.011 18.128 164.035 20.176C165.102 22.224 165.635 24.6347 165.635 27.408V50H155.651ZM131.907 50V14.416H141.571L141.891 20.752V50H131.907ZM224.053 50L212.789 5.328H223.669L230.005 30.288L232.053 41.936L234.101 30.288L240.437 5.328H251.189L239.861 50H224.053ZM268.558 50V14.416H278.542V50H268.558ZM257.038 50V41.936H290.19V50H257.038ZM261.518 22.48V14.416H273.55V22.48H261.518ZM268.174 9.68V0.335999H278.798V9.68H268.174ZM316.071 50.768C312.743 50.768 309.82 50.2347 307.303 49.168C304.786 48.0587 302.823 46.5013 301.415 44.496C300.05 42.448 299.346 40.0373 299.303 37.264H308.583C308.498 39.2267 309.116 40.7627 310.439 41.872C311.804 42.9813 313.66 43.536 316.007 43.536C317.714 43.536 319.079 43.2587 320.103 42.704C321.17 42.1067 321.703 41.296 321.703 40.272C321.703 39.376 321.298 38.672 320.487 38.16C319.719 37.6053 318.695 37.1787 317.415 36.88C316.135 36.5387 314.727 36.2187 313.191 35.92C311.655 35.5787 310.098 35.1733 308.519 34.704C306.983 34.2347 305.575 33.616 304.295 32.848C303.015 32.0373 301.97 30.992 301.159 29.712C300.391 28.3893 300.007 26.7467 300.007 24.784C300.007 22.5227 300.647 20.56 301.927 18.896C303.207 17.232 304.978 15.952 307.239 15.056C309.543 14.1173 312.188 13.648 315.175 13.648C319.74 13.648 323.431 14.7147 326.247 16.848C329.106 18.9387 330.684 21.8827 330.983 25.68H321.767C321.682 24.1013 321.042 22.9067 319.847 22.096C318.652 21.2853 317.116 20.88 315.239 20.88C313.66 20.88 312.402 21.1573 311.463 21.712C310.524 22.2667 310.055 23.0987 310.055 24.208C310.055 25.104 310.439 25.808 311.207 26.32C312.018 26.7893 313.063 27.1733 314.343 27.472C315.623 27.7707 317.031 28.048 318.567 28.304C320.146 28.56 321.703 28.9227 323.239 29.392C324.775 29.8187 326.183 30.416 327.463 31.184C328.743 31.952 329.767 32.976 330.535 34.256C331.346 35.536 331.751 37.1787 331.751 39.184C331.751 42.8107 330.322 45.648 327.463 47.696C324.647 49.744 320.85 50.768 316.071 50.768ZM363.776 50V28.112C363.776 26.2347 363.307 24.7413 362.368 23.632C361.429 22.5227 360.192 21.968 358.656 21.968C356.907 21.968 355.285 22.5653 353.792 23.76C352.341 24.912 350.805 26.9173 349.184 29.776L347.776 21.392C349.397 18.576 351.36 16.592 353.664 15.44C355.968 14.2453 358.315 13.648 360.704 13.648C363.435 13.648 365.76 14.224 367.68 15.376C369.643 16.528 371.136 18.1493 372.16 20.24C373.227 22.288 373.76 24.6987 373.76 27.472V50H363.776ZM340.032 50V2.576H350.016V50H340.032ZM383.577 50L378.713 14.288H387.737L389.721 32.464L390.297 39.952L391.321 32.464L394.137 14.288H402.969L405.977 32.464L407.001 40.144L407.641 32.464L409.561 14.288H418.137L413.465 50H402.009L399.129 33.36L398.425 23.376L397.785 33.36L394.905 50H383.577ZM446.962 50L446.642 43.6V26.064C446.642 24.4 446.023 23.0987 444.786 22.16C443.549 21.1787 441.842 20.688 439.666 20.688C437.575 20.688 435.869 21.136 434.546 22.032C433.266 22.8853 432.519 24.1013 432.306 25.68H422.642C422.855 23.1627 423.709 21.008 425.202 19.216C426.695 17.424 428.701 16.0587 431.218 15.12C433.778 14.1387 436.743 13.648 440.114 13.648C443.442 13.648 446.343 14.16 448.818 15.184C451.293 16.1653 453.191 17.6373 454.514 19.6C455.879 21.52 456.562 23.888 456.562 26.704V50H446.962ZM435.57 50.768C433.223 50.768 431.154 50.32 429.362 49.424C427.57 48.4853 426.183 47.2053 425.202 45.584C424.221 43.9627 423.73 42.128 423.73 40.08C423.73 36.4107 425.138 33.5733 427.954 31.568C430.813 29.52 434.738 28.496 439.73 28.496H447.602V35.408L439.474 35.472C437.639 35.472 436.167 35.8133 435.058 36.496C433.991 37.136 433.458 38.1173 433.458 39.44C433.458 40.3787 433.842 41.1893 434.61 41.872C435.421 42.5547 436.551 42.896 438.002 42.896C440.007 42.896 441.778 42.4053 443.314 41.424C444.893 40.4 446.194 39.0133 447.218 37.264L448.306 43.984C447.239 46.3307 445.597 48.0587 443.378 49.168C441.202 50.2347 438.599 50.768 435.57 50.768ZM463.627 50V2.64H473.611V17.872L472.971 28.56L479.755 20.304L485.387 14.416H498.059L473.611 38.736V50H463.627ZM487.051 50L475.723 29.52L484.875 25.936L498.635 50H487.051ZM530.212 50L529.892 43.6V26.064C529.892 24.4 529.273 23.0987 528.036 22.16C526.799 21.1787 525.092 20.688 522.916 20.688C520.825 20.688 519.119 21.136 517.796 22.032C516.516 22.8853 515.769 24.1013 515.556 25.68H505.892C506.105 23.1627 506.959 21.008 508.452 19.216C509.945 17.424 511.951 16.0587 514.468 15.12C517.028 14.1387 519.993 13.648 523.364 13.648C526.692 13.648 529.593 14.16 532.068 15.184C534.543 16.1653 536.441 17.6373 537.764 19.6C539.129 21.52 539.812 23.888 539.812 26.704V50H530.212ZM518.82 50.768C516.473 50.768 514.404 50.32 512.612 49.424C510.82 48.4853 509.433 47.2053 508.452 45.584C507.471 43.9627 506.98 42.128 506.98 40.08C506.98 36.4107 508.388 33.5733 511.204 31.568C514.063 29.52 517.988 28.496 522.98 28.496H530.852V35.408L522.724 35.472C520.889 35.472 519.417 35.8133 518.308 36.496C517.241 37.136 516.708 38.1173 516.708 39.44C516.708 40.3787 517.092 41.1893 517.86 41.872C518.671 42.5547 519.801 42.896 521.252 42.896C523.257 42.896 525.028 42.4053 526.564 41.424C528.143 40.4 529.444 39.0133 530.468 37.264L531.556 43.984C530.489 46.3307 528.847 48.0587 526.628 49.168C524.452 50.2347 521.849 50.768 518.82 50.768ZM572.541 32.208V27.408C572.541 25.7867 572.114 24.4853 571.261 23.504C570.408 22.48 569.128 21.968 567.421 21.968C565.501 21.968 563.688 22.608 561.981 23.888C560.274 25.168 558.653 27.3867 557.117 30.544L556.093 22.16C557.202 20.2827 558.418 18.7253 559.741 17.488C561.064 16.208 562.514 15.248 564.093 14.608C565.714 13.968 567.485 13.648 569.405 13.648C573.202 13.648 576.338 14.8213 578.813 17.168C581.288 19.472 582.525 22.8853 582.525 27.408V32.208H572.541ZM548.797 50V14.416H558.397L558.781 20.816V50H548.797ZM615.638 50V24.912C615.638 23.9307 615.51 23.1627 615.254 22.608C614.998 22.0107 614.507 21.712 613.782 21.712C612.843 21.712 611.99 22.416 611.222 23.824C610.497 25.1893 609.899 27.6 609.43 31.056L608.79 26.256C608.534 22.3733 609.174 19.3013 610.71 17.04C612.246 14.7787 614.315 13.648 616.918 13.648C619.137 13.648 620.971 14.5227 622.422 16.272C623.873 17.9787 624.598 20.496 624.598 23.824V50H615.638ZM588.502 50V14.416H597.206L597.398 21.008V50H588.502ZM602.07 50V24.912C602.07 23.8027 601.899 22.992 601.558 22.48C601.259 21.968 600.79 21.712 600.15 21.712C599.041 21.712 598.166 22.48 597.526 24.016C596.886 25.552 596.331 27.8987 595.862 31.056L595.926 25.872C595.755 23.3973 596.033 21.2427 596.758 19.408C597.483 17.5733 598.443 16.1653 599.638 15.184C600.875 14.16 602.198 13.648 603.606 13.648C605.867 13.648 607.659 14.5867 608.982 16.464C610.305 18.2987 610.966 20.7093 610.966 23.696V50H602.07ZM655.087 50L654.767 43.6V26.064C654.767 24.4 654.148 23.0987 652.911 22.16C651.674 21.1787 649.967 20.688 647.791 20.688C645.7 20.688 643.994 21.136 642.671 22.032C641.391 22.8853 640.644 24.1013 640.431 25.68H630.767C630.98 23.1627 631.834 21.008 633.327 19.216C634.82 17.424 636.826 16.0587 639.343 15.12C641.903 14.1387 644.868 13.648 648.239 13.648C651.567 13.648 654.468 14.16 656.943 15.184C659.418 16.1653 661.316 17.6373 662.639 19.6C664.004 21.52 664.687 23.888 664.687 26.704V50H655.087ZM643.695 50.768C641.348 50.768 639.279 50.32 637.487 49.424C635.695 48.4853 634.308 47.2053 633.327 45.584C632.346 43.9627 631.855 42.128 631.855 40.08C631.855 36.4107 633.263 33.5733 636.079 31.568C638.938 29.52 642.863 28.496 647.855 28.496H655.727V35.408L647.599 35.472C645.764 35.472 644.292 35.8133 643.183 36.496C642.116 37.136 641.583 38.1173 641.583 39.44C641.583 40.3787 641.967 41.1893 642.735 41.872C643.546 42.5547 644.676 42.896 646.127 42.896C648.132 42.896 649.903 42.4053 651.439 41.424C653.018 40.4 654.319 39.0133 655.343 37.264L656.431 43.984C655.364 46.3307 653.722 48.0587 651.503 49.168C649.327 50.2347 646.724 50.768 643.695 50.768Z" fill="#171717"/>

</svg>
